# xmcd
#
# Track frame offsets: 
#        150
#        28559
#        47782
#        65124
#        86488
#        108851
#        142411
#        159719
#        185947
#
# Disc length: 2852 seconds
#
# Revision: 0
# Processed by: cddbd v1.5.2PL0 Copyright (c) Steve Scherf et al.
# Submitted via: ExactAudioCopyFreeDBPlugin 1.0
#
DISCID=860b2209
DTITLE=Carlene Carter - Carlene Carter-Nashville 2014
DYEAR=2014
DGENRE=Crossover
TTITLE0=The Bitter End
TTITLE1=Bring Love
TTITLE2=Little Black Train- w Elizabeth Cook
TTITLE3=Give Me the Roses
TTITLE4=Me and the Wildwood Rose-Will the Circle Be Unbroken
TTITLE5=Poor Old Heartsick Me
TTITLE6=I'll Be All Smiles Tonight
TTITLE7=Lonesome Valley 2003
TTITLE8=Break My Little Heart in Two
EXTD=
EXTT0=
EXTT1=
EXTT2=
EXTT3=
EXTT4=
EXTT5=
EXTT6=
EXTT7=
EXTT8=
PLAYORDER=
